{
  "accessors": [
    {
      "bufferView": 2,
      "componentType": 5126,
      "count": 2248,
      "max": [
        0.578406572341919,
        0.5099999904632568,
        0.7600000500679016
      ],
      "min": [
        -5.551115123125783e-17,
        0.2199999839067459,
        0.3799999952316284
      ],
      "type": "VEC3"
    },
    {
      "bufferView": 2,
      "byteOffset": 26976,
      "componentType": 5126,
      "count": 2248,
      "max": [
        1.0,
        1.0,
        1.0
      ],
      "min": [
        -0.9996998310089111,
        -0.999862551689148,
        -0.9999874234199524
      ],
      "type": "VEC3"
    },
    {
      "bufferView": 1,
      "componentType": 5126,
      "count": 2248,
      "max": [
        0.9917576313018799,
        0.9904060959815979
      ],
      "min": [
        0.008242342621088028,
        0.00942972768098116
      ],
      "type": "VEC2"
    },
    {
      "bufferView": 0,
      "componentType": 5125,
      "count": 11556,
      "type": "SCALAR"
    },
    {
      "bufferView": 2,
      "byteOffset": 53952,
      "componentType": 5126,
      "count": 164,
      "max": [
        0.4686793088912964,
        0.08107998967170715,
        0.41499999165534973
      ],
      "min": [
        0.4559793472290039,
        0.0683799758553505,
        0.0030000009573996067
      ],
      "type": "VEC3"
    },
    {
      "bufferView": 2,
      "byteOffset": 55920,
      "componentType": 5126,
      "count": 164,
      "max": [
        0.9914454817771912,
        0.9914442896842957,
        1.0
      ],
      "min": [
        -0.9914454817771912,
        -0.9914442896842957,
        -1.0
      ],
      "type": "VEC3"
    },
    {
      "bufferView": 1,
      "byteOffset": 17984,
      "componentType": 5126,
      "count": 164,
      "max": [
        83.33333587646484,
        73.37765502929688
      ],
      "min": [
        -83.33333587646484,
        -41.72461700439453
      ],
      "type": "VEC2"
    },
    {
      "bufferView": 0,
      "byteOffset": 46224,
      "componentType": 5125,
      "count": 288,
      "type": "SCALAR"
    },
    {
      "bufferView": 2,
      "byteOffset": 57888,
      "componentType": 5126,
      "count": 563,
      "max": [
        0.1370752900838852,
        0.09572729468345642,
        0.003000001423060894
      ],
      "min": [
        0.09509910643100739,
        0.053749650716781616,
        8.009318763768647e-10
      ],
      "type": "VEC3"
    },
    {
      "bufferView": 2,
      "byteOffset": 64644,
      "componentType": 5126,
      "count": 563,
      "max": [
        1.0,
        1.0,
        1.0
      ],
      "min": [
        -6.078639813722475e-08,
        -6.676464892052536e-08,
        -1.0
      ],
      "type": "VEC3"
    },
    {
      "bufferView": 1,
      "byteOffset": 19296,
      "componentType": 5126,
      "count": 563,
      "max": [
        385.33245849609375,
        723.2739868164063
      ],
      "min": [
        -385.33245849609375,
        -476.06768798828125
      ],
      "type": "VEC2"
    },
    {
      "bufferView": 0,
      "byteOffset": 47376,
      "componentType": 5125,
      "count": 1008,
      "type": "SCALAR"
    },
    {
      "bufferView": 2,
      "byteOffset": 71400,
      "componentType": 5126,
      "count": 574,
      "max": [
        0.1370752900838852,
        0.4810876250267029,
        0.006000007037073374
      ],
      "min": [
        0.09509910643100739,
        0.4391099810600281,
        0.0030000065453350544
      ],
      "type": "VEC3"
    },
    {
      "bufferView": 2,
      "byteOffset": 78288,
      "componentType": 5126,
      "count": 574,
      "max": [
        1.0,
        1.0,
        1.0
      ],
      "min": [
        -3.371790313622114e-08,
        -9.861029326430071e-08,
        -1.0
      ],
      "type": "VEC3"
    },
    {
      "bufferView": 1,
      "byteOffset": 23800,
      "componentType": 5126,
      "count": 574,
      "max": [
        385.3323059082031,
        461.0805358886719
      ],
      "min": [
        -385.3323059082031,
        -723.4802856445313
      ],
      "type": "VEC2"
    },
    {
      "bufferView": 0,
      "byteOffset": 51408,
      "componentType": 5125,
      "count": 1008,
      "type": "SCALAR"
    },
    {
      "bufferView": 2,
      "byteOffset": 85176,
      "componentType": 5126,
      "count": 561,
      "max": [
        0.48332735896110535,
        0.4810876250267029,
        0.006000007037073374
      ],
      "min": [
        0.4413512051105499,
        0.4391099810600281,
        0.0030000065453350544
      ],
      "type": "VEC3"
    },
    {
      "bufferView": 2,
      "byteOffset": 91908,
      "componentType": 5126,
      "count": 561,
      "max": [
        1.0,
        1.0,
        1.0
      ],
      "min": [
        -3.371775392224663e-08,
        -9.861029326430071e-08,
        -1.0
      ],
      "type": "VEC3"
    },
    {
      "bufferView": 1,
      "byteOffset": 28392,
      "componentType": 5126,
      "count": 561,
      "max": [
        385.371826171875,
        476.0644836425781
      ],
      "min": [
        -385.371826171875,
        -723.274169921875
      ],
      "type": "VEC2"
    },
    {
      "bufferView": 0,
      "byteOffset": 55440,
      "componentType": 5125,
      "count": 1008,
      "type": "SCALAR"
    },
    {
      "bufferView": 2,
      "byteOffset": 98640,
      "componentType": 5126,
      "count": 558,
      "max": [
        0.48332735896110535,
        0.09572729468345642,
        0.003000001423060894
      ],
      "min": [
        0.4413512051105499,
        0.053749650716781616,
        8.009318208657135e-10
      ],
      "type": "VEC3"
    },
    {
      "bufferView": 2,
      "byteOffset": 105336,
      "componentType": 5126,
      "count": 558,
      "max": [
        1.0,
        1.0,
        1.0
      ],
      "min": [
        -6.078687420085771e-08,
        -6.676464892052536e-08,
        -1.0
      ],
      "type": "VEC3"
    },
    {
      "bufferView": 1,
      "byteOffset": 32880,
      "componentType": 5126,
      "count": 558,
      "max": [
        385.3719787597656,
        723.4806518554688
      ],
      "min": [
        -385.3719787597656,
        -461.0807189941406
      ],
      "type": "VEC2"
    },
    {
      "bufferView": 0,
      "byteOffset": 59472,
      "componentType": 5125,
      "count": 1008,
      "type": "SCALAR"
    },
    {
      "bufferView": 2,
      "byteOffset": 112032,
      "componentType": 5126,
      "count": 161,
      "max": [
        0.12242724001407623,
        0.08107998967170715,
        0.41499999165534973
      ],
      "min": [
        0.10972724854946136,
        0.0683799758553505,
        0.0030000009573996067
      ],
      "type": "VEC3"
    },
    {
      "bufferView": 2,
      "byteOffset": 113964,
      "componentType": 5126,
      "count": 161,
      "max": [
        0.9914454817771912,
        0.9914442896842957,
        1.0
      ],
      "min": [
        -0.9914454817771912,
        -0.9914442896842957,
        -1.0
      ],
      "type": "VEC3"
    },
    {
      "bufferView": 1,
      "byteOffset": 37344,
      "componentType": 5126,
      "count": 161,
      "max": [
        83.33333587646484,
        73.37765502929688
      ],
      "min": [
        -83.33333587646484,
        -41.72461700439453
      ],
      "type": "VEC2"
    },
    {
      "bufferView": 0,
      "byteOffset": 63504,
      "componentType": 5125,
      "count": 288,
      "type": "SCALAR"
    },
    {
      "bufferView": 2,
      "byteOffset": 115896,
      "componentType": 5126,
      "count": 5667,
      "max": [
        0.4686632752418518,
        0.5223715901374817,
        0.6634500622749329
      ],
      "min": [
        0.10947751998901367,
        0.45378151535987854,
        0.0021000592969357967
      ],
      "type": "VEC3"
    },
    {
      "bufferView": 2,
      "byteOffset": 183900,
      "componentType": 5126,
      "count": 5667,
      "max": [
        1.0,
        1.0,
        1.0
      ],
      "min": [
        -0.997866153717041,
        -0.9999919533729553,
        -1.0
      ],
      "type": "VEC3"
    },
    {
      "bufferView": 1,
      "byteOffset": 38632,
      "componentType": 5126,
      "count": 5667,
      "max": [
        84.7573471069336,
        105.32380676269531
      ],
      "min": [
        -84.72875213623047,
        -123.12820434570313
      ],
      "type": "VEC2"
    },
    {
      "bufferView": 0,
      "byteOffset": 64656,
      "componentType": 5125,
      "count": 5790,
      "type": "SCALAR"
    },
    {
      "bufferView": 2,
      "byteOffset": 251904,
      "componentType": 5126,
      "count": 24,
      "max": [
        0.45920106768608093,
        0.45637190341949463,
        0.3800000250339508
      ],
      "min": [
        0.11920331418514252,
        0.07845085114240646,
        0.32919999957084656
      ],
      "type": "VEC3"
    },
    {
      "bufferView": 2,
      "byteOffset": 252192,
      "componentType": 5126,
      "count": 24,
      "max": [
        0.7438430786132813,
        0.7438431978225708,
        1.0
      ],
      "min": [
        -0.743843138217926,
        -0.7438476085662842,
        -1.0
      ],
      "type": "VEC3"
    },
    {
      "bufferView": 1,
      "byteOffset": 83968,
      "componentType": 5126,
      "count": 24,
      "max": [
        83.13023376464844,
        78.01798248291016
      ],
      "min": [
        -83.13023376464844,
        -78.01899719238281
      ],
      "type": "VEC2"
    },
    {
      "bufferView": 0,
      "byteOffset": 87816,
      "componentType": 5125,
      "count": 36,
      "type": "SCALAR"
    },
    {
      "bufferView": 2,
      "byteOffset": 252480,
      "componentType": 5126,
      "count": 24,
      "max": [
        0.45919862389564514,
        0.45636674761772156,
        0.3800000250339508
      ],
      "min": [
        0.28921017050743103,
        0.267657071352005,
        0.32919999957084656
      ],
      "type": "VEC3"
    },
    {
      "bufferView": 2,
      "byteOffset": 252768,
      "componentType": 5126,
      "count": 24,
      "max": [
        0.743843138217926,
        0.7438431978225708,
        1.0
      ],
      "min": [
        -0.743843138217926,
        -0.7438431978225708,
        -1.0
      ],
      "type": "VEC3"
    },
    {
      "bufferView": 1,
      "byteOffset": 84160,
      "componentType": 5126,
      "count": 24,
      "max": [
        166.48147583007813,
        0.9275244474411011
      ],
      "min": [
        -166.48147583007813,
        -156.2411346435547
      ],
      "type": "VEC2"
    },
    {
      "bufferView": 0,
      "byteOffset": 87960,
      "componentType": 5125,
      "count": 36,
      "type": "SCALAR"
    },
    {
      "bufferView": 2,
      "byteOffset": 253056,
      "componentType": 5126,
      "count": 24,
      "max": [
        0.2891939878463745,
        0.2671605348587036,
        0.3799999952316284
      ],
      "min": [
        0.1192055195569992,
        0.07845085114240646,
        0.32919999957084656
      ],
      "type": "VEC3"
    },
    {
      "bufferView": 2,
      "byteOffset": 253344,
      "componentType": 5126,
      "count": 24,
      "max": [
        0.7438430786132813,
        0.7438431978225708,
        1.0
      ],
      "min": [
        -0.7438430786132813,
        -0.7438431978225708,
        -1.0
      ],
      "type": "VEC3"
    },
    {
      "bufferView": 1,
      "byteOffset": 84352,
      "componentType": 5126,
      "count": 24,
      "max": [
        166.48147583007813,
        156.24337768554688
      ],
      "min": [
        -166.48147583007813,
        -0.9275270104408264
      ],
      "type": "VEC2"
    },
    {
      "bufferView": 0,
      "byteOffset": 88104,
      "componentType": 5125,
      "count": 36,
      "type": "SCALAR"
    },
    {
      "bufferView": 2,
      "byteOffset": 253632,
      "componentType": 5126,
      "count": 326,
      "max": [
        0.4291880130767822,
        0.35986191034317017,
        0.382999986410141
      ],
      "min": [
        0.1493418663740158,
        0.08001544326543808,
        0.3799999952316284
      ],
      "type": "VEC3"
    },
    {
      "bufferView": 2,
      "byteOffset": 257544,
      "componentType": 5126,
      "count": 326,
      "max": [
        0.9990101456642151,
        0.9998896718025208,
        1.0
      ],
      "min": [
        -0.999890923500061,
        -0.9990138411521912,
        -1.0
      ],
      "type": "VEC3"
    },
    {
      "bufferView": 1,
      "byteOffset": 84544,
      "componentType": 5126,
      "count": 326,
      "max": [
        113.15727996826172,
        78.1369857788086
      ],
      "min": [
        -113.15727996826172,
        -38.54912567138672
      ],
      "type": "VEC2"
    },
    {
      "bufferView": 0,
      "byteOffset": 88248,
      "componentType": 5125,
      "count": 648,
      "type": "SCALAR"
    },
    {
      "bufferView": 2,
      "byteOffset": 261456,
      "componentType": 5126,
      "count": 457,
      "max": [
        0.5089806914329529,
        0.4397773742675781,
        0.44300001859664917
      ],
      "min": [
        0.06942588090896606,
        0.00022257419186644256,
        0.38449999690055847
      ],
      "type": "VEC3"
    },
    {
      "bufferView": 2,
      "byteOffset": 266940,
      "componentType": 5126,
      "count": 457,
      "max": [
        0.9999560713768005,
        0.9997573494911194,
        1.0
      ],
      "min": [
        -0.9997573494911194,
        -0.9999800324440002,
        -1.0
      ],
      "type": "VEC3"
    },
    {
      "bufferView": 1,
      "byteOffset": 87152,
      "componentType": 5126,
      "count": 457,
      "max": [
        0.800000011920929,
        0.800000011920929
      ],
      "min": [
        1.4688276365592418e-13,
        -6.072919944699606e-14
      ],
      "type": "VEC2"
    },
    {
      "bufferView": 0,
      "byteOffset": 90840,
      "componentType": 5125,
      "count": 1188,
      "type": "SCALAR"
    }
  ],
  "asset": {
    "extras": {
      "author": "Grupo Oca (https://sketchfab.com/grupooca)",
      "license": "CC-BY-4.0 (http://creativecommons.org/licenses/by/4.0/)",
      "source": "https://sketchfab.com/3d-models/poltrona-romeu-america-agave-casa-517babf6cb8c404fbbdbaa511dfc3d22",
      "title": "POLTRONA ROMEU AMERICA AGAVE CASA"
    },
    "generator": "Sketchfab-15.30.0",
    "version": "2.0"
  },
  "bufferViews": [
    {
      "buffer": 0,
      "byteLength": 95592,
      "name": "floatBufferViews",
      "target": 34963
    },
    {
      "buffer": 0,
      "byteLength": 90808,
      "byteOffset": 95592,
      "byteStride": 8,
      "name": "floatBufferViews",
      "target": 34962
    },
    {
      "buffer": 0,
      "byteLength": 272424,
      "byteOffset": 186400,
      "byteStride": 12,
      "name": "floatBufferViews",
      "target": 34962
    }
  ],
  "buffers": [
    {
      "byteLength": 458824,
      "uri": "scene.bin"
    }
  ],
  "extensionsRequired": [
    "KHR_materials_pbrSpecularGlossiness"
  ],
  "extensionsUsed": [
    "KHR_materials_pbrSpecularGlossiness"
  ],
  "images": [
    {
      "uri": "textures/ASSENTO_diffuse.jpeg"
    },
    {
      "uri": "textures/ENCOSTO_diffuse.jpeg"
    },
    {
      "uri": "textures/ESTRUTUR_diffuse.jpeg"
    }
  ],
  "materials": [
    {
      "doubleSided": true,
      "extensions": {
        "KHR_materials_pbrSpecularGlossiness": {
          "diffuseFactor": [
            1.0,
            1.0,
            1.0,
            1.0
          ],
          "diffuseTexture": {
            "index": 0
          },
          "glossinessFactor": 0.4,
          "specularFactor": [
            0.0,
            0.0,
            0.0
          ]
        }
      },
      "name": "ASSENTO"
    },
    {
      "doubleSided": true,
      "extensions": {
        "KHR_materials_pbrSpecularGlossiness": {
          "diffuseFactor": [
            1.0,
            1.0,
            1.0,
            1.0
          ],
          "diffuseTexture": {
            "index": 1
          },
          "glossinessFactor": 0.4,
          "specularFactor": [
            0.0,
            0.0,
            0.0
          ]
        }
      },
      "name": "ENCOSTO"
    },
    {
      "doubleSided": true,
      "extensions": {
        "KHR_materials_pbrSpecularGlossiness": {
          "diffuseFactor": [
            1.0,
            1.0,
            1.0,
            1.0
          ],
          "diffuseTexture": {
            "index": 2
          },
          "glossinessFactor": 0.4,
          "specularFactor": [
            0.0,
            0.0,
            0.0
          ]
        }
      },
      "name": "ESTRUTUR"
    }
  ],
  "meshes": [
    {
      "name": "Object_0",
      "primitives": [
        {
          "attributes": {
            "NORMAL": 1,
            "POSITION": 0,
            "TEXCOORD_0": 2
          },
          "indices": 3,
          "material": 1,
          "mode": 4
        }
      ]
    },
    {
      "name": "Object_1",
      "primitives": [
        {
          "attributes": {
            "NORMAL": 5,
            "POSITION": 4,
            "TEXCOORD_0": 6
          },
          "indices": 7,
          "material": 2,
          "mode": 4
        }
      ]
    },
    {
      "name": "Object_2",
      "primitives": [
        {
          "attributes": {
            "NORMAL": 9,
            "POSITION": 8,
            "TEXCOORD_0": 10
          },
          "indices": 11,
          "material": 2,
          "mode": 4
        }
      ]
    },
    {
      "name": "Object_3",
      "primitives": [
        {
          "attributes": {
            "NORMAL": 13,
            "POSITION": 12,
            "TEXCOORD_0": 14
          },
          "indices": 15,
          "material": 2,
          "mode": 4
        }
      ]
    },
    {
      "name": "Object_4",
      "primitives": [
        {
          "attributes": {
            "NORMAL": 17,
            "POSITION": 16,
            "TEXCOORD_0": 18
          },
          "indices": 19,
          "material": 2,
          "mode": 4
        }
      ]
    },
    {
      "name": "Object_5",
      "primitives": [
        {
          "attributes": {
            "NORMAL": 21,
            "POSITION": 20,
            "TEXCOORD_0": 22
          },
          "indices": 23,
          "material": 2,
          "mode": 4
        }
      ]
    },
    {
      "name": "Object_6",
      "primitives": [
        {
          "attributes": {
            "NORMAL": 25,
            "POSITION": 24,
            "TEXCOORD_0": 26
          },
          "indices": 27,
          "material": 2,
          "mode": 4
        }
      ]
    },
    {
      "name": "Object_7",
      "primitives": [
        {
          "attributes": {
            "NORMAL": 29,
            "POSITION": 28,
            "TEXCOORD_0": 30
          },
          "indices": 31,
          "material": 2,
          "mode": 4
        }
      ]
    },
    {
      "name": "Object_8",
      "primitives": [
        {
          "attributes": {
            "NORMAL": 33,
            "POSITION": 32,
            "TEXCOORD_0": 34
          },
          "indices": 35,
          "material": 2,
          "mode": 4
        }
      ]
    },
    {
      "name": "Object_9",
      "primitives": [
        {
          "attributes": {
            "NORMAL": 37,
            "POSITION": 36,
            "TEXCOORD_0": 38
          },
          "indices": 39,
          "material": 2,
          "mode": 4
        }
      ]
    },
    {
      "name": "Object_10",
      "primitives": [
        {
          "attributes": {
            "NORMAL": 41,
            "POSITION": 40,
            "TEXCOORD_0": 42
          },
          "indices": 43,
          "material": 2,
          "mode": 4
        }
      ]
    },
    {
      "name": "Object_11",
      "primitives": [
        {
          "attributes": {
            "NORMAL": 45,
            "POSITION": 44,
            "TEXCOORD_0": 46
          },
          "indices": 47,
          "material": 2,
          "mode": 4
        }
      ]
    },
    {
      "name": "Object_12",
      "primitives": [
        {
          "attributes": {
            "NORMAL": 49,
            "POSITION": 48,
            "TEXCOORD_0": 50
          },
          "indices": 51,
          "material": 0,
          "mode": 4
        }
      ]
    }
  ],
  "nodes": [
    {
      "children": [
        1
      ],
      "matrix": [
        1.0,
        0.0,
        0.0,
        0.0,
        0.0,
        2.220446049250313e-16,
        -1.0,
        0.0,
        0.0,
        1.0,
        2.220446049250313e-16,
        0.0,
        0.0,
        0.0,
        0.0,
        1.0
      ],
      "name": "Sketchfab_model"
    },
    {
      "children": [
        2
      ],
      "name": "626d078bfd04419e9a531691743e0c3b.3ds"
    },
    {
      "children": [
        29,
        3
      ],
      "name": "Model"
    },
    {
      "children": [
        4,
        6
      ],
      "name": "SimLab_201"
    },
    {
      "children": [
        5
      ],
      "name": "ENCOSTO"
    },
    {
      "mesh": 0,
      "name": "Object_5"
    },
    {
      "children": [
        7,
        9,
        11,
        13,
        15,
        17,
        19,
        21,
        23,
        25,
        27
      ],
      "name": "ESTRUTURA"
    },
    {
      "children": [
        8
      ],
      "name": "Body_1"
    },
    {
      "mesh": 1,
      "name": "Object_8"
    },
    {
      "children": [
        10
      ],
      "name": "Body_10"
    },
    {
      "mesh": 2,
      "name": "Object_10"
    },
    {
      "children": [
        12
      ],
      "name": "Body_11"
    },
    {
      "mesh": 3,
      "name": "Object_12"
    },
    {
      "children": [
        14
      ],
      "name": "Body_12"
    },
    {
      "mesh": 4,
      "name": "Object_14"
    },
    {
      "children": [
        16
      ],
      "name": "Body_13"
    },
    {
      "mesh": 5,
      "name": "Object_16"
    },
    {
      "children": [
        18
      ],
      "name": "Body_2"
    },
    {
      "mesh": 6,
      "name": "Object_18"
    },
    {
      "children": [
        20
      ],
      "name": "Body_3"
    },
    {
      "mesh": 7,
      "name": "Object_20"
    },
    {
      "children": [
        22
      ],
      "name": "Body_4"
    },
    {
      "mesh": 8,
      "name": "Object_22"
    },
    {
      "children": [
        24
      ],
      "name": "Body_5"
    },
    {
      "mesh": 9,
      "name": "Object_24"
    },
    {
      "children": [
        26
      ],
      "name": "Body_6"
    },
    {
      "mesh": 10,
      "name": "Object_26"
    },
    {
      "children": [
        28
      ],
      "name": "Body_7"
    },
    {
      "mesh": 11,
      "name": "Object_28"
    },
    {
      "mesh": 12,
      "name": "Object_29"
    }
  ],
  "samplers": [
    {
      "magFilter": 9729,
      "minFilter": 9987,
      "wrapS": 10497,
      "wrapT": 10497
    }
  ],
  "scene": 0,
  "scenes": [
    {
      "name": "Sketchfab_Scene",
      "nodes": [
        0
      ]
    }
  ],
  "textures": [
    {
      "sampler": 0,
      "source": 0
    },
    {
      "sampler": 0,
      "source": 1
    },
    {
      "sampler": 0,
      "source": 2
    }
  ]
}
