{
  "accessors": [
    {
      "bufferView": 2,
      "componentType": 5126,
      "count": 5169,
      "max": [
        0.6499999761581421,
        0.800000011920929,
        0.6599947810173035
      ],
      "min": [
        0.4997556209564209,
        0.30000001192092896,
        1.799491056195219e-16
      ],
      "type": "VEC3"
    },
    {
      "bufferView": 2,
      "byteOffset": 62028,
      "componentType": 5126,
      "count": 5169,
      "max": [
        1.0,
        1.0,
        1.0
      ],
      "min": [
        -1.0,
        -1.0,
        -1.0
      ],
      "type": "VEC3"
    },
    {
      "bufferView": 1,
      "componentType": 5126,
      "count": 5169,
      "max": [
        7.473999500274658,
        7.040884971618652
      ],
      "min": [
        -7.375520706176758,
        -1.5974334478378296
      ],
      "type": "VEC2"
    },
    {
      "bufferView": 0,
      "componentType": 5125,
      "count": 16971,
      "type": "SCALAR"
    },
    {
      "bufferView": 2,
      "byteOffset": 124056,
      "componentType": 5126,
      "count": 7092,
      "max": [
        0.6483258605003357,
        0.795374870300293,
        0.6537750959396362
      ],
      "min": [
        0.5018888711929321,
        0.30461475253105164,
        0.005653021391481161
      ],
      "type": "VEC3"
    },
    {
      "bufferView": 2,
      "byteOffset": 209160,
      "componentType": 5126,
      "count": 7092,
      "max": [
        1.0,
        1.0,
        1.0
      ],
      "min": [
        -0.9915784001350403,
        -0.9914498925209045,
        -0.964119553565979
      ],
      "type": "VEC3"
    },
    {
      "bufferView": 1,
      "byteOffset": 41352,
      "componentType": 5126,
      "count": 7092,
      "max": [
        7.836490154266357,
        7.287607192993164
      ],
      "min": [
        -12.03406047821045,
        -4.774130344390869
      ],
      "type": "VEC2"
    },
    {
      "bufferView": 0,
      "byteOffset": 67884,
      "componentType": 5125,
      "count": 14802,
      "type": "SCALAR"
    },
    {
      "bufferView": 2,
      "byteOffset": 294264,
      "componentType": 5126,
      "count": 5890,
      "max": [
        0.6476122736930847,
        0.795626163482666,
        0.6537750959396362
      ],
      "min": [
        0.501888632774353,
        0.3043634295463562,
        0.3301064372062683
      ],
      "type": "VEC3"
    },
    {
      "bufferView": 2,
      "byteOffset": 364944,
      "componentType": 5126,
      "count": 5890,
      "max": [
        1.0,
        1.0,
        1.0
      ],
      "min": [
        -0.9914498925209045,
        -0.9914498925209045,
        -0.9698425531387329
      ],
      "type": "VEC3"
    },
    {
      "bufferView": 1,
      "byteOffset": 98088,
      "componentType": 5126,
      "count": 5890,
      "max": [
        3.1722252368927,
        1.353163719177246
      ],
      "min": [
        -12.479005813598633,
        -5.084598064422607
      ],
      "type": "VEC2"
    },
    {
      "bufferView": 0,
      "byteOffset": 127092,
      "componentType": 5125,
      "count": 13983,
      "type": "SCALAR"
    },
    {
      "bufferView": 2,
      "byteOffset": 435624,
      "componentType": 5126,
      "count": 1447,
      "max": [
        0.6460404396057129,
        0.7946848273277283,
        0.6539947986602783
      ],
      "min": [
        0.5034604072570801,
        0.30530479550361633,
        0.005994807463139296
      ],
      "type": "VEC3"
    },
    {
      "bufferView": 2,
      "byteOffset": 452988,
      "componentType": 5126,
      "count": 1447,
      "max": [
        1.0,
        1.0,
        1.0
      ],
      "min": [
        -0.6894692778587341,
        -1.0,
        -1.0
      ],
      "type": "VEC3"
    },
    {
      "bufferView": 1,
      "byteOffset": 145208,
      "componentType": 5126,
      "count": 1447,
      "max": [
        1.0,
        1.0
      ],
      "min": [
        0.0,
        0.0
      ],
      "type": "VEC2"
    },
    {
      "bufferView": 0,
      "byteOffset": 183024,
      "componentType": 5125,
      "count": 1860,
      "type": "SCALAR"
    },
    {
      "bufferView": 2,
      "byteOffset": 470352,
      "componentType": 5126,
      "count": 6906,
      "max": [
        2.4002444744110107,
        0.800000011920929,
        0.6599947810173035
      ],
      "min": [
        2.25,
        0.30000001192092896,
        6.343010283868708e-20
      ],
      "type": "VEC3"
    },
    {
      "bufferView": 2,
      "byteOffset": 553224,
      "componentType": 5126,
      "count": 6906,
      "max": [
        1.0,
        1.0,
        1.0
      ],
      "min": [
        -1.0,
        -1.0,
        -1.0
      ],
      "type": "VEC3"
    },
    {
      "bufferView": 1,
      "byteOffset": 156784,
      "componentType": 5126,
      "count": 6906,
      "max": [
        7.6557841300964355,
        6.852156162261963
      ],
      "min": [
        -7.375520706176758,
        -1.5974334478378296
      ],
      "type": "VEC2"
    },
    {
      "bufferView": 0,
      "byteOffset": 190464,
      "componentType": 5125,
      "count": 20055,
      "type": "SCALAR"
    },
    {
      "bufferView": 2,
      "byteOffset": 636096,
      "componentType": 5126,
      "count": 4878,
      "max": [
        2.39811110496521,
        0.795374870300293,
        0.5687668919563293
      ],
      "min": [
        2.251674175262451,
        0.30461475253105164,
        0.005653021391481161
      ],
      "type": "VEC3"
    },
    {
      "bufferView": 2,
      "byteOffset": 694632,
      "componentType": 5126,
      "count": 4878,
      "max": [
        1.0,
        1.0,
        1.0
      ],
      "min": [
        -1.0,
        -0.9914528131484985,
        -0.9720948338508606
      ],
      "type": "VEC3"
    },
    {
      "bufferView": 1,
      "byteOffset": 212032,
      "componentType": 5126,
      "count": 4878,
      "max": [
        7.836490154266357,
        7.287607192993164
      ],
      "min": [
        -11.735492706298828,
        -4.774130344390869
      ],
      "type": "VEC2"
    },
    {
      "bufferView": 0,
      "byteOffset": 270684,
      "componentType": 5125,
      "count": 10281,
      "type": "SCALAR"
    },
    {
      "bufferView": 2,
      "byteOffset": 753168,
      "componentType": 5126,
      "count": 6281,
      "max": [
        2.398111343383789,
        0.795626163482666,
        0.6537750959396362
      ],
      "min": [
        2.252387762069702,
        0.3043634295463562,
        0.3301064372062683
      ],
      "type": "VEC3"
    },
    {
      "bufferView": 2,
      "byteOffset": 828540,
      "componentType": 5126,
      "count": 6281,
      "max": [
        1.0,
        1.0,
        1.0
      ],
      "min": [
        -1.0,
        -0.9914528131484985,
        -0.9892913699150085
      ],
      "type": "VEC3"
    },
    {
      "bufferView": 1,
      "byteOffset": 251056,
      "componentType": 5126,
      "count": 6281,
      "max": [
        3.1722252368927,
        1.353163719177246
      ],
      "min": [
        -12.479005813598633,
        -5.084598064422607
      ],
      "type": "VEC2"
    },
    {
      "bufferView": 0,
      "byteOffset": 311808,
      "componentType": 5125,
      "count": 15420,
      "type": "SCALAR"
    },
    {
      "bufferView": 2,
      "byteOffset": 903912,
      "componentType": 5126,
      "count": 1447,
      "max": [
        2.3965394496917725,
        0.7946848273277283,
        0.6539947986602783
      ],
      "min": [
        2.2539596557617188,
        0.30530479550361633,
        0.005994807463139296
      ],
      "type": "VEC3"
    },
    {
      "bufferView": 2,
      "byteOffset": 921276,
      "componentType": 5126,
      "count": 1447,
      "max": [
        1.0,
        1.0,
        1.0
      ],
      "min": [
        -0.6894919872283936,
        -1.0,
        -1.0
      ],
      "type": "VEC3"
    },
    {
      "bufferView": 1,
      "byteOffset": 301304,
      "componentType": 5126,
      "count": 1447,
      "max": [
        1.0,
        1.0
      ],
      "min": [
        0.0,
        0.0
      ],
      "type": "VEC2"
    },
    {
      "bufferView": 0,
      "byteOffset": 373488,
      "componentType": 5125,
      "count": 1860,
      "type": "SCALAR"
    },
    {
      "bufferView": 2,
      "byteOffset": 938640,
      "componentType": 5126,
      "count": 24,
      "max": [
        2.3980000019073486,
        0.802545428276062,
        0.7099947929382324
      ],
      "min": [
        0.5019999742507935,
        0.2974545359611511,
        0.6599947810173035
      ],
      "type": "VEC3"
    },
    {
      "bufferView": 2,
      "byteOffset": 938928,
      "componentType": 5126,
      "count": 24,
      "max": [
        1.0,
        1.0,
        0.0
      ],
      "min": [
        -1.0,
        -1.0,
        -1.0
      ],
      "type": "VEC3"
    },
    {
      "bufferView": 1,
      "byteOffset": 312880,
      "componentType": 5126,
      "count": 24,
      "max": [
        6.129410743713379,
        2.3293793201446533
      ],
      "min": [
        -6.227835655212402,
        0.0
      ],
      "type": "VEC2"
    },
    {
      "bufferView": 0,
      "byteOffset": 380928,
      "componentType": 5125,
      "count": 48,
      "type": "SCALAR"
    },
    {
      "bufferView": 2,
      "byteOffset": 939216,
      "componentType": 5126,
      "count": 80,
      "max": [
        2.9000000953674316,
        1.100000023841858,
        0.7399948239326477
      ],
      "min": [
        0.0,
        0.0,
        0.6599947810173035
      ],
      "type": "VEC3"
    },
    {
      "bufferView": 2,
      "byteOffset": 940176,
      "componentType": 5126,
      "count": 80,
      "max": [
        1.0,
        1.0,
        1.0
      ],
      "min": [
        -1.0,
        -1.0,
        -1.0
      ],
      "type": "VEC3"
    },
    {
      "bufferView": 1,
      "byteOffset": 313072,
      "componentType": 5126,
      "count": 80,
      "max": [
        3.4642252922058105,
        2.162184000015259
      ],
      "min": [
        -4.920356750488281,
        -0.31644487380981445
      ],
      "type": "VEC2"
    },
    {
      "bufferView": 0,
      "byteOffset": 381120,
      "componentType": 5125,
      "count": 132,
      "type": "SCALAR"
    },
    {
      "bufferView": 2,
      "byteOffset": 941136,
      "componentType": 5126,
      "count": 24,
      "max": [
        2.9000000953674316,
        1.100000023841858,
        0.7450948357582092
      ],
      "min": [
        0.0,
        0.0,
        0.740094780921936
      ],
      "type": "VEC3"
    },
    {
      "bufferView": 2,
      "byteOffset": 941424,
      "componentType": 5126,
      "count": 24,
      "max": [
        1.0,
        1.0,
        1.0
      ],
      "min": [
        -1.0,
        -1.0,
        -1.0
      ],
      "type": "VEC3"
    },
    {
      "bufferView": 1,
      "byteOffset": 313712,
      "componentType": 5126,
      "count": 24,
      "max": [
        4.142857074737549,
        1.5714285373687744
      ],
      "min": [
        -4.142857074737549,
        0.0
      ],
      "type": "VEC2"
    },
    {
      "bufferView": 0,
      "byteOffset": 381648,
      "componentType": 5125,
      "count": 36,
      "type": "SCALAR"
    }
  ],
  "asset": {
    "extras": {
      "author": "Grupo Oca (https://sketchfab.com/grupooca)",
      "license": "CC-BY-4.0 (http://creativecommons.org/licenses/by/4.0/)",
      "source": "https://sketchfab.com/3d-models/mesa-de-jantar-code-augusta-doimo-agave-casa-207b8d89a9d34c2cb1e6f1219850c5c4",
      "title": "MESA DE JANTAR CODE AUGUSTA DOIMO AGAVE CASA"
    },
    "generator": "Sketchfab-15.49.0",
    "version": "2.0"
  },
  "bufferViews": [
    {
      "buffer": 0,
      "byteLength": 381792,
      "name": "floatBufferViews",
      "target": 34963
    },
    {
      "buffer": 0,
      "byteLength": 313904,
      "byteOffset": 381792,
      "byteStride": 8,
      "name": "floatBufferViews",
      "target": 34962
    },
    {
      "buffer": 0,
      "byteLength": 941712,
      "byteOffset": 695696,
      "byteStride": 12,
      "name": "floatBufferViews",
      "target": 34962
    }
  ],
  "buffers": [
    {
      "byteLength": 1637408,
      "uri": "scene.bin"
    }
  ],
  "extensionsRequired": [
    "KHR_materials_pbrSpecularGlossiness"
  ],
  "extensionsUsed": [
    "KHR_materials_pbrSpecularGlossiness"
  ],
  "images": [
    {
      "uri": "textures/BASE_diffuse.jpeg"
    },
    {
      "uri": "textures/TAMPO_diffuse.jpeg"
    },
    {
      "uri": "textures/VIDRO_diffuse.jpeg"
    }
  ],
  "materials": [
    {
      "doubleSided": true,
      "extensions": {
        "KHR_materials_pbrSpecularGlossiness": {
          "diffuseFactor": [
            1.0,
            1.0,
            1.0,
            1.0
          ],
          "diffuseTexture": {
            "index": 0
          },
          "glossinessFactor": 0.4,
          "specularFactor": [
            0.0,
            0.0,
            0.0
          ]
        }
      },
      "name": "BASE"
    },
    {
      "doubleSided": true,
      "extensions": {
        "KHR_materials_pbrSpecularGlossiness": {
          "diffuseFactor": [
            0.156863,
            0.14902,
            0.152941,
            1.0
          ],
          "glossinessFactor": 0.4,
          "specularFactor": [
            0.0,
            0.0,
            0.0
          ]
        }
      },
      "name": "EdgeColo"
    },
    {
      "doubleSided": true,
      "extensions": {
        "KHR_materials_pbrSpecularGlossiness": {
          "diffuseFactor": [
            1.0,
            1.0,
            1.0,
            1.0
          ],
          "diffuseTexture": {
            "index": 1
          },
          "glossinessFactor": 0.4,
          "specularFactor": [
            0.0,
            0.0,
            0.0
          ]
        }
      },
      "name": "TAMPO"
    },
    {
      "alphaMode": "BLEND",
      "doubleSided": true,
      "extensions": {
        "KHR_materials_pbrSpecularGlossiness": {
          "diffuseFactor": [
            0.278857992710073,
            0.278857992710073,
            0.278857992710073,
            0.17523862929867975
          ],
          "diffuseTexture": {
            "index": 2
          },
          "glossinessFactor": 0.4,
          "specularFactor": [
            0.05333349587351123,
            0.05333349587351123,
            0.05333349587351123
          ],
          "specularGlossinessTexture": {
            "index": 2
          }
        }
      },
      "name": "VIDRO"
    }
  ],
  "meshes": [
    {
      "name": "Object_0",
      "primitives": [
        {
          "attributes": {
            "NORMAL": 1,
            "POSITION": 0,
            "TEXCOORD_0": 2
          },
          "indices": 3,
          "material": 0,
          "mode": 4
        }
      ]
    },
    {
      "name": "Object_1",
      "primitives": [
        {
          "attributes": {
            "NORMAL": 5,
            "POSITION": 4,
            "TEXCOORD_0": 6
          },
          "indices": 7,
          "material": 0,
          "mode": 4
        }
      ]
    },
    {
      "name": "Object_2",
      "primitives": [
        {
          "attributes": {
            "NORMAL": 9,
            "POSITION": 8,
            "TEXCOORD_0": 10
          },
          "indices": 11,
          "material": 0,
          "mode": 4
        }
      ]
    },
    {
      "name": "Object_3",
      "primitives": [
        {
          "attributes": {
            "NORMAL": 13,
            "POSITION": 12,
            "TEXCOORD_0": 14
          },
          "indices": 15,
          "material": 1,
          "mode": 4
        }
      ]
    },
    {
      "name": "Object_4",
      "primitives": [
        {
          "attributes": {
            "NORMAL": 17,
            "POSITION": 16,
            "TEXCOORD_0": 18
          },
          "indices": 19,
          "material": 0,
          "mode": 4
        }
      ]
    },
    {
      "name": "Object_5",
      "primitives": [
        {
          "attributes": {
            "NORMAL": 21,
            "POSITION": 20,
            "TEXCOORD_0": 22
          },
          "indices": 23,
          "material": 0,
          "mode": 4
        }
      ]
    },
    {
      "name": "Object_6",
      "primitives": [
        {
          "attributes": {
            "NORMAL": 25,
            "POSITION": 24,
            "TEXCOORD_0": 26
          },
          "indices": 27,
          "material": 0,
          "mode": 4
        }
      ]
    },
    {
      "name": "Object_7",
      "primitives": [
        {
          "attributes": {
            "NORMAL": 29,
            "POSITION": 28,
            "TEXCOORD_0": 30
          },
          "indices": 31,
          "material": 1,
          "mode": 4
        }
      ]
    },
    {
      "name": "Object_8",
      "primitives": [
        {
          "attributes": {
            "NORMAL": 33,
            "POSITION": 32,
            "TEXCOORD_0": 34
          },
          "indices": 35,
          "material": 0,
          "mode": 4
        }
      ]
    },
    {
      "name": "Object_9",
      "primitives": [
        {
          "attributes": {
            "NORMAL": 37,
            "POSITION": 36,
            "TEXCOORD_0": 38
          },
          "indices": 39,
          "material": 2,
          "mode": 4
        }
      ]
    },
    {
      "name": "Object_10",
      "primitives": [
        {
          "attributes": {
            "NORMAL": 41,
            "POSITION": 40,
            "TEXCOORD_0": 42
          },
          "indices": 43,
          "material": 3,
          "mode": 4
        }
      ]
    }
  ],
  "nodes": [
    {
      "children": [
        1
      ],
      "matrix": [
        1.0,
        0.0,
        0.0,
        0.0,
        0.0,
        2.220446049250313e-16,
        -1.0,
        0.0,
        0.0,
        1.0,
        2.220446049250313e-16,
        0.0,
        0.0,
        0.0,
        0.0,
        1.0
      ],
      "name": "Sketchfab_model"
    },
    {
      "children": [
        2
      ],
      "name": "7362acb3843e4ac4871d43d29ac7374c.3ds"
    },
    {
      "children": [
        3
      ],
      "name": "Model"
    },
    {
      "children": [
        18,
        4,
        16
      ],
      "name": "Group1"
    },
    {
      "children": [
        15,
        5,
        10
      ],
      "name": "BASE"
    },
    {
      "children": [
        6,
        7,
        8,
        9
      ],
      "name": "Componen01"
    },
    {
      "mesh": 0,
      "name": "Object_6"
    },
    {
      "mesh": 1,
      "name": "Object_7"
    },
    {
      "mesh": 2,
      "name": "Object_8"
    },
    {
      "mesh": 3,
      "name": "Object_9"
    },
    {
      "children": [
        11,
        12,
        13,
        14
      ],
      "name": "Componente"
    },
    {
      "mesh": 4,
      "name": "Object_11"
    },
    {
      "mesh": 5,
      "name": "Object_12"
    },
    {
      "mesh": 6,
      "name": "Object_13"
    },
    {
      "mesh": 7,
      "name": "Object_14"
    },
    {
      "mesh": 8,
      "name": "Object_15"
    },
    {
      "children": [
        17
      ],
      "name": "TAMPO"
    },
    {
      "mesh": 9,
      "name": "Object_17"
    },
    {
      "mesh": 10,
      "name": "Object_18"
    }
  ],
  "samplers": [
    {
      "magFilter": 9729,
      "minFilter": 9987,
      "wrapS": 10497,
      "wrapT": 10497
    }
  ],
  "scene": 0,
  "scenes": [
    {
      "name": "Sketchfab_Scene",
      "nodes": [
        0
      ]
    }
  ],
  "textures": [
    {
      "sampler": 0,
      "source": 0
    },
    {
      "sampler": 0,
      "source": 1
    },
    {
      "sampler": 0,
      "source": 2
    }
  ]
}